Coordinates
version=1
nRows=17
nColumns=36
inDegrees=yes

Units are S.I. units (second, meters, Newtons, ...)
If the header above contains a line with 'inDegrees', this indicates whether rotational values are in degrees (yes) or radians (no).

endheader
time	pelvis_tilt	pelvis_list	pelvis_rotation	pelvis_tx	pelvis_ty	pelvis_tz	hip_flexion_r	hip_adduction_r	hip_rotation_r	knee_angle_r	knee_angle_r_beta	ankle_angle_r	subtalar_angle_r	mtp_angle_r	hip_flexion_l	hip_adduction_l	hip_rotation_l	knee_angle_l	knee_angle_l_beta	ankle_angle_l	subtalar_angle_l	mtp_angle_l	lumbar_extension	lumbar_bending	lumbar_rotation	arm_flex_r	arm_add_r	arm_rot_r	elbow_flex_r	pro_sup_r	arm_flex_l	arm_add_l	arm_rot_l	elbow_flex_l	pro_sup_l
      1.22916670	    -14.19946899	      2.57614694	      0.59511267	     -1.14077242	      1.13523532	     -0.07212212	     56.94242976	     -1.67182247	      3.41684110	     68.42265997	      1.19420070	     21.29245568	    -23.96665451	     -7.49999987	     55.57723371	     -1.93590212	     -3.39715032	     69.05622269	      1.20525846	     22.41577434	     -7.08208064	     -7.49999987	    -55.33446966	     -0.75177794	      2.69820982	    -17.87111249	    -11.82848333	    -45.53194406	      9.64016915	     77.15335586	    -13.18545462	    -11.39754935	    -21.54662294	     22.46144157	     47.64913447
      1.23333330	    -14.50655544	      2.64280695	      0.60590404	     -1.13814049	      1.13088222	     -0.07167723	     57.65149154	     -1.63798463	      3.50522424	     69.18708910	      1.20754250	     21.80765574	    -23.42348483	     -7.49999987	     56.21679979	     -1.86183644	     -3.29216166	     69.63999459	      1.21544720	     22.76497814	     -7.06450451	     -7.49999987	    -55.24881812	     -0.92861569	      2.61311189	    -18.51992860	    -12.99633142	    -26.26346578	      5.13908553	     71.25171799	    -14.09866937	    -11.33970484	    -22.84557835	     22.61845230	     48.87220258
      1.23750000	    -14.83099420	      2.60733671	      0.58791649	     -1.13767262	      1.12751249	     -0.07186786	     58.26180031	     -1.56490449	      3.49983664	     69.75647182	      1.21748011	     22.38685296	    -22.99095648	     -7.49999987	     56.92346057	     -1.92405870	     -3.21458612	     70.32805203	      1.22745606	     23.27801478	     -6.91023255	     -7.49999987	    -55.20883834	     -0.84581807	      2.79129611	    -19.05929305	    -13.08494729	    -26.02951728	      4.54137593	     70.55996462	    -14.55464573	    -11.18038852	    -23.65550130	     22.53233166	     49.28220544
      1.24166670	    -15.07334585	      2.67603363	      0.49076689	     -1.13338802	      1.12297325	     -0.07516518	     58.80028160	     -1.67641534	      3.61718501	     70.56472520	      1.23158679	     22.92734311	    -22.69942249	     -7.49999987	     57.38579681	     -1.84195276	     -3.25689548	     71.09605333	      1.24086022	     23.86621315	     -6.80925905	     -7.49999987	    -54.99584611	     -0.76250328	      3.27596863	    -19.93260234	    -13.39924806	    -24.95911027	      3.98954787	     70.97848919	    -14.94434626	    -10.96356521	    -23.90426903	     22.19006048	     49.11826414
      1.24583330	    -15.19103701	      2.67857509	      0.39111913	     -1.13579563	      1.12204012	     -0.07515933	     59.11912534	     -1.70240846	      3.73585920	     71.13479500	      1.24153639	     23.26859582	    -22.57706796	     -7.49999987	     57.63694636	     -1.83261325	     -3.26194524	     71.55178891	      1.24881430	     24.44667628	     -6.67910940	     -7.49999987	    -55.26693367	     -0.70739238	      3.25791359	    -20.37825531	    -14.07856950	    -23.86271509	      3.54866773	     70.57835025	    -15.44837848	    -10.51864915	    -25.37627959	     22.06983334	     49.61356940
      1.25000000	    -15.61533824	      2.70902442	      0.27721410	     -1.13345264	      1.11639177	     -0.07420527	     60.08067579	     -1.74813283	      3.81934230	     72.19218677	      1.25999135	     23.77561386	    -21.92359068	     -7.49999987	     58.39393311	     -1.85722162	     -3.29346446	     72.28067409	      1.26153575	     24.93517378	     -6.77600996	     -7.49999987	    -54.92502193	     -0.79909275	      3.82839190	    -21.40676238	    -14.43481275	    -21.32287206	      3.12992999	     71.58356600	    -15.63780680	    -10.46218554	    -26.12158369	     21.62241445	     49.70068756
      1.25416670	    -15.99163971	      2.75475592	      0.19983206	     -1.13301667	      1.11433344	     -0.07318477	     60.86378053	     -1.65831407	      3.91268223	     72.96988294	      1.27356471	     23.88403172	    -21.90535686	     -7.49999987	     59.06379408	     -2.00276294	     -3.38897985	     73.02519997	      1.27453018	     24.90923234	     -7.54755346	     -7.49999987	    -54.99321154	     -0.90922766	      4.76960088	    -23.07834748	    -15.24591735	     -3.58435455	      3.18269346	     79.06259330	    -15.39006831	    -10.90988570	    -23.72555808	     20.72006709	     50.91434699
      1.25833330	    -16.40249955	      2.78389543	      0.14611671	     -1.13288948	      1.11204845	     -0.07367686	     61.67595266	     -1.58196466	      3.97323559	     73.57068894	      1.28405075	     23.77297202	    -21.95712894	     -7.49999987	     59.75841136	     -2.05000938	     -3.41364661	     73.53407242	      1.28341168	     24.97929409	     -8.04721997	     -7.49999987	    -54.95815552	     -1.03385701	      5.27301781	    -23.89992553	    -15.48237922	     -1.83039708	      3.34024360	     76.95140907	    -15.55526190	    -10.77443071	    -25.13808908	     20.65811791	     51.62183314
      1.26250000	    -16.83632418	      2.73465960	      0.22554560	     -1.13281197	      1.10870675	     -0.07324737	     62.54731773	     -1.56311947	      3.88783901	     74.21666427	      1.29532515	     23.78049392	    -21.94667948	     -7.49999987	     60.49803689	     -2.08577607	     -3.33222963	     74.03984621	      1.29223909	     25.14892098	     -8.29649084	     -7.49999987	    -55.05758913	     -1.04890793	      5.99644377	    -25.35668964	    -16.08012218	      9.61110545	      4.50126694	     79.06834506	    -15.46438911	    -10.98769455	    -24.37331747	     20.19378292	     52.37327873
      1.26666670	    -17.25244302	      2.72982195	      0.26502987	     -1.13276197	      1.10624256	     -0.07375593	     63.29668203	     -1.56283247	      3.87426182	     74.67321908	      1.30329354	     23.76178711	    -22.06813962	     -7.49999987	     61.25043944	     -2.12647876	     -3.34909446	     74.51673240	      1.30056233	     25.25995495	     -8.32494776	     -7.49999987	    -55.07348550	     -1.09423915	      6.33575605	    -26.42979557	    -16.46790416	     12.12153366	      6.46562799	     77.82725414	    -15.52504591	    -10.90803527	    -25.47948401	     19.77532285	     52.51506579
      1.27083330	    -17.41757116	      2.64161450	      0.33320827	     -1.13156932	      1.10269612	     -0.07274319	     63.73604492	     -1.51883821	      3.87725903	     75.16882968	      1.31194357	     24.22462861	    -21.67602892	     -7.49999987	     61.78465207	     -2.17713032	     -3.13938615	     75.11568213	      1.31101597	     25.40205464	     -8.34787060	     -7.49999987	    -55.07013594	     -0.97045847	      6.09789017	    -27.14131083	    -16.41299936	     17.97838738	      7.68944109	     75.74174205	    -15.96698414	    -10.81633984	    -25.35274481	     19.22592606	     53.00144684
      1.27500000	    -17.60787057	      2.51316088	      0.37727160	     -1.13135276	      1.10150092	     -0.07368632	     64.10310025	     -1.45321311	      3.79138017	     75.45589725	      1.31695385	     24.17377824	    -21.87659819	     -7.49999987	     62.26397475	     -2.29723285	     -3.04319965	     75.68548082	      1.32096084	     25.33213078	     -8.63891490	     -7.49999987	    -55.11842305	     -0.80609755	      6.05118379	    -27.07600365	    -16.08500565	     19.34367029	      7.92321732	     74.37206416	    -16.42774020	    -10.67610525	    -25.60901293	     19.48118283	     53.24223640
      1.27916670	    -17.69013536	      2.40478560	      0.41232087	     -1.13145664	      1.09783080	     -0.07287221	     64.42104318	     -1.40504468	      3.65172752	     75.84317382	      1.32371310	     24.29628006	    -22.03869184	     -7.49999987	     62.64908874	     -2.42315279	     -2.91250369	     76.20558855	      1.33003843	     25.44467199	     -8.95117696	     -7.49999987	    -55.23485198	     -0.63420773	      5.85367432	    -26.89947731	    -15.77263375	     21.13538134	      7.79436385	     72.32865640	    -16.92519531	    -10.44802576	    -26.43618572	     19.18760543	     53.62868139
      1.28333330	    -17.78143383	      2.28243418	      0.45152756	     -1.12862739	      1.09679952	     -0.07194152	     64.67862373	     -1.27590476	      3.52952565	     76.33221626	      1.33224850	     24.30091755	    -22.37560483	     -7.49999987	     62.93927547	     -2.56514789	     -2.79045096	     76.69837136	      1.33863911	     25.54024743	     -9.02879718	     -7.49999987	    -55.39932013	     -0.53906288	      5.72426304	    -26.69250125	    -15.35778682	     21.98962329	      7.56850725	     71.16642741	    -17.25785205	    -10.36900697	    -26.90244022	     19.11955875	     53.86071922
      1.28750000	    -17.96732512	      2.24951883	      0.52557608	     -1.12819821	      1.09256213	     -0.07262530	     65.21675319	     -1.29428238	      3.44429155	     77.03310348	      1.34448129	     24.33338059	    -22.60078165	     -7.49999987	     63.49714025	     -2.60406084	     -2.74709449	     77.32162695	      1.34951697	     25.82611729	     -8.86622276	     -7.49999987	    -55.31798280	     -0.47441816	      5.76064382	    -26.97961157	    -15.09047769	     22.59797124	      7.74210243	     70.00170324	    -17.51411274	    -10.40750920	    -27.10673917	     18.97737152	     54.20105823
      1.29166670	    -18.11456477	      2.11940096	      0.61457848	     -1.12857658	      1.09183844	     -0.07244329	     65.52742723	     -1.27183408	      3.24947827	     77.40191577	      1.35091828	     24.38508821	    -22.84497855	     -7.49999987	     63.89881638	     -2.61464723	     -2.58467843	     77.70857601	      1.35627051	     25.96564306	     -8.72385918	     -7.49999987	    -55.58068126	     -0.43753364	      5.60422955	    -26.95090255	    -16.46924407	     43.08876125	     10.46154078	     44.70433837	    -17.75154027	    -10.16410201	    -28.53815081	     19.20781225	     54.66575990
      1.29583330	    -18.34654340	      2.05057236	      0.63963105	     -1.13016153	      1.08886240	     -0.07208956	     66.06075422	     -1.15758553	      3.20627926	     77.78557389	      1.35761437	     24.55215977	    -22.70108441	     -7.49999987	     64.52892055	     -2.69626315	     -2.50344494	     78.19652127	      1.36478676	     26.12456049	     -8.45274155	     -7.49999987	    -55.60712068	     -0.43175007	      5.43503026	    -26.84716047	    -16.46600244	     42.98418694	     10.29285228	     45.58499439	    -18.07470215	    -10.11444045	    -29.00967328	     19.19738813	     54.93328382
